<mxfile host="app.diagrams.net" modified="2024-03-14T21:12:22.188Z" agent="Mozilla/5.0 (Macintosh; Intel Mac OS X 10_15_7) AppleWebKit/537.36 (KHTML, like Gecko) Chrome/121.0.0.0 Safari/537.36" etag="j-vyQ4xqaOOJmI0cgGUm" version="24.0.6" type="device">
  <diagram name="Page-1" id="FdMXIMpHHidAcxxj8MQh">
    <mxGraphModel dx="599" dy="464" grid="1" gridSize="10" guides="1" tooltips="1" connect="1" arrows="1" fold="1" page="1" pageScale="1" pageWidth="850" pageHeight="1100" math="0" shadow="0">
      <root>
        <mxCell id="0" />
        <mxCell id="1" parent="0" />
        <mxCell id="cY3jBfdIXtUwnJecSZ29-1" value="" style="ellipse;whiteSpace=wrap;html=1;fillColor=#dae8fc;strokeColor=#6c8ebf;" vertex="1" parent="1">
          <mxGeometry x="60" y="280" width="80" height="80" as="geometry" />
        </mxCell>
        <mxCell id="cY3jBfdIXtUwnJecSZ29-2" value="" style="shape=cylinder3;whiteSpace=wrap;html=1;boundedLbl=1;backgroundOutline=1;size=2.7619047619047308;fillColor=#dae8fc;strokeColor=#6c8ebf;" vertex="1" parent="1">
          <mxGeometry x="90" y="240" width="20" height="50" as="geometry" />
        </mxCell>
        <mxCell id="cY3jBfdIXtUwnJecSZ29-3" value="" style="shape=sortShape;perimeter=rhombusPerimeter;whiteSpace=wrap;html=1;" vertex="1" parent="1">
          <mxGeometry x="80" y="340" width="20" height="10" as="geometry" />
        </mxCell>
        <mxCell id="cY3jBfdIXtUwnJecSZ29-4" value="" style="shape=sortShape;perimeter=rhombusPerimeter;whiteSpace=wrap;html=1;rotation=-45;" vertex="1" parent="1">
          <mxGeometry x="90" y="340" width="20" height="10" as="geometry" />
        </mxCell>
        <mxCell id="cY3jBfdIXtUwnJecSZ29-5" value="" style="shape=sortShape;perimeter=rhombusPerimeter;whiteSpace=wrap;html=1;rotation=45;" vertex="1" parent="1">
          <mxGeometry x="100" y="340" width="20" height="10" as="geometry" />
        </mxCell>
        <mxCell id="cY3jBfdIXtUwnJecSZ29-9" value="3" style="shape=cylinder3;whiteSpace=wrap;html=1;boundedLbl=1;backgroundOutline=1;size=7.047619047619065;fillColor=#fff2cc;strokeColor=#d6b656;" vertex="1" parent="1">
          <mxGeometry x="80" y="170" width="40" height="80" as="geometry" />
        </mxCell>
        <mxCell id="cY3jBfdIXtUwnJecSZ29-10" value="" style="shape=cylinder3;whiteSpace=wrap;html=1;boundedLbl=1;backgroundOutline=1;size=4.026779184506097;rotation=100;fillColor=#fff2cc;strokeColor=#d6b656;" vertex="1" parent="1">
          <mxGeometry x="120.15" y="198.26" width="10" height="30" as="geometry" />
        </mxCell>
        <mxCell id="cY3jBfdIXtUwnJecSZ29-11" value="7" style="shape=cylinder3;whiteSpace=wrap;html=1;boundedLbl=1;backgroundOutline=1;size=1.8888888888888857;rotation=0;fillColor=#d5e8d4;strokeColor=#82b366;" vertex="1" parent="1">
          <mxGeometry x="95" y="90" width="10" height="90" as="geometry" />
        </mxCell>
        <mxCell id="cY3jBfdIXtUwnJecSZ29-12" value="" style="verticalLabelPosition=bottom;verticalAlign=top;html=1;shape=mxgraph.basic.partConcEllipse;startAngle=0.25;endAngle=0.75;arcWidth=0.37;fillColor=#f8cecc;strokeColor=#b85450;horizontal=1;" vertex="1" parent="1">
          <mxGeometry x="40" y="260" width="120" height="120" as="geometry" />
        </mxCell>
        <mxCell id="cY3jBfdIXtUwnJecSZ29-15" value="" style="shape=cylinder3;whiteSpace=wrap;html=1;boundedLbl=1;backgroundOutline=1;size=2.636231283352174;rotation=100;fillColor=#fff2cc;strokeColor=#d6b656;" vertex="1" parent="1">
          <mxGeometry x="222.25" y="134.93" width="10" height="192.97" as="geometry" />
        </mxCell>
        <mxCell id="cY3jBfdIXtUwnJecSZ29-16" value="" style="shape=cylinder3;whiteSpace=wrap;html=1;boundedLbl=1;backgroundOutline=1;size=2.0877777777777453;rotation=1;fillColor=#e1d5e7;strokeColor=#9673a6;opacity=50;" vertex="1" parent="1">
          <mxGeometry x="300" y="251.19" width="6.97" height="21.61" as="geometry" />
        </mxCell>
        <mxCell id="cY3jBfdIXtUwnJecSZ29-13" value="" style="shape=cylinder3;whiteSpace=wrap;html=1;boundedLbl=1;backgroundOutline=1;size=4.026779184506097;rotation=100;fillColor=#e1d5e7;strokeColor=#9673a6;opacity=50;" vertex="1" parent="1">
          <mxGeometry x="213.61" y="135.04" width="18.89" height="192.26" as="geometry" />
        </mxCell>
        <mxCell id="cY3jBfdIXtUwnJecSZ29-18" value="" style="shape=cylinder3;whiteSpace=wrap;html=1;boundedLbl=1;backgroundOutline=1;size=2.636231283352174;rotation=100;fillColor=#fff2cc;strokeColor=#d6b656;" vertex="1" parent="1">
          <mxGeometry x="320" y="237.42" width="10" height="22.58" as="geometry" />
        </mxCell>
        <mxCell id="cY3jBfdIXtUwnJecSZ29-17" value="" style="shape=cylinder3;whiteSpace=wrap;html=1;boundedLbl=1;backgroundOutline=1;size=2.0877777777777453;rotation=1;fillColor=#e1d5e7;strokeColor=#9673a6;opacity=50;" vertex="1" parent="1">
          <mxGeometry x="138" y="188" width="6.97" height="21.61" as="geometry" />
        </mxCell>
        <mxCell id="cY3jBfdIXtUwnJecSZ29-20" value="" style="triangle;whiteSpace=wrap;html=1;rotation=-90;fillColor=#f5f5f5;strokeColor=#666666;shadow=0;fontColor=#333333;" vertex="1" parent="1">
          <mxGeometry x="320" y="287.90000000000003" width="40" height="40" as="geometry" />
        </mxCell>
        <mxCell id="cY3jBfdIXtUwnJecSZ29-21" value="" style="shape=cylinder3;whiteSpace=wrap;html=1;boundedLbl=1;backgroundOutline=1;size=2.9999999999999716;fillColor=#f5f5f5;strokeColor=#666666;fontColor=#333333;" vertex="1" parent="1">
          <mxGeometry x="335" y="260" width="10" height="40" as="geometry" />
        </mxCell>
        <mxCell id="cY3jBfdIXtUwnJecSZ29-19" value="5" style="shape=cylinder3;whiteSpace=wrap;html=1;boundedLbl=1;backgroundOutline=1;size=2.9999999999999716;fillColor=#fff2cc;strokeColor=#d6b656;" vertex="1" parent="1">
          <mxGeometry x="330" y="240" width="20" height="30" as="geometry" />
        </mxCell>
        <mxCell id="cY3jBfdIXtUwnJecSZ29-24" value="4" style="text;html=1;align=center;verticalAlign=middle;whiteSpace=wrap;rounded=0;" vertex="1" parent="1">
          <mxGeometry x="213.61" y="227.41" width="20" height="8" as="geometry" />
        </mxCell>
        <mxCell id="cY3jBfdIXtUwnJecSZ29-25" value="1" style="text;html=1;align=center;verticalAlign=middle;whiteSpace=wrap;rounded=0;" vertex="1" parent="1">
          <mxGeometry x="90" y="300" width="20" height="8" as="geometry" />
        </mxCell>
        <mxCell id="cY3jBfdIXtUwnJecSZ29-26" value="2" style="text;html=1;align=center;verticalAlign=middle;whiteSpace=wrap;rounded=0;" vertex="1" parent="1">
          <mxGeometry x="90" y="370" width="20" height="8" as="geometry" />
        </mxCell>
        <mxCell id="cY3jBfdIXtUwnJecSZ29-27" value="6" style="text;html=1;align=center;verticalAlign=middle;whiteSpace=wrap;rounded=0;" vertex="1" parent="1">
          <mxGeometry x="330" y="308" width="20" height="8" as="geometry" />
        </mxCell>
        <mxCell id="cY3jBfdIXtUwnJecSZ29-28" value="" style="shape=cylinder3;whiteSpace=wrap;html=1;boundedLbl=1;backgroundOutline=1;size=2.2558178809631784;rotation=100;fillColor=#fff2cc;strokeColor=#d6b656;" vertex="1" parent="1">
          <mxGeometry x="350" y="258.11" width="5" height="13.77" as="geometry" />
        </mxCell>
      </root>
    </mxGraphModel>
  </diagram>
</mxfile>
